<?xml version="1.0" encoding="UTF-8"?>
<svg xmlns="http://www.w3.org/2000/svg" xmlns:xlink="http://www.w3.org/1999/xlink" width="512" height="512" viewBox="0 0 58 61" version="1.1"><!-- Generator: Sketch 51.3 (57544) - http://www.bohemiancoding.com/sketch --><title>008 - Family Tree</title><desc>Created with Sketch.</desc><defs/><g id="Page-1" stroke="none" stroke-width="1" fill="none" fill-rule="evenodd"><g id="008---Family-Tree" fill="#000000" fill-rule="nonzero"><path d="M49,22 C44.4193956,22.0062088 40.5724713,25.4482616 40.059,30 L37.941,30 C37.4682726,25.8257472 34.1742528,22.5317274 30,22.059 L30,22 C30.0004962,21.4479209 30.4479209,21.0004962 31,21 L37,21 C38.2830524,20.9957303 39.4207752,20.1744528 39.8288,18.958 C44.5635811,18.5328063 48.156068,14.5065602 48.0411232,9.75411559 C47.9261783,5.00167097 44.1432446,1.15381026 39.3934439,0.958015098 C34.6436433,0.762219937 30.5568508,4.28567665 30.0511523,9.01253726 C29.5454538,13.7393979 32.7943776,18.047659 37.4781,18.8611 C37.3335021,18.9481386 37.1687257,18.9960103 37,19 L31,19 C30.2595264,19.0022103 29.5464557,19.2803078 29,19.78 C28.4535443,19.2803078 27.7404736,19.0022103 27,19 L21,19 C20.8312743,18.9960103 20.6664979,18.9481386 20.5219,18.8611 C25.1291003,18.0706389 28.3642002,13.8846639 27.967539,9.22700539 C27.5708778,4.56934686 23.6745185,0.990709908 19,0.990709908 C14.3254815,0.990709908 10.4291222,4.56934686 10.032461,9.22700539 C9.63579981,13.8846639 12.8708997,18.0706389 17.4781,18.8611 C17.3335021,18.9481386 17.1687257,18.9960103 17,19 L11,19 C9.34389967,19.0018187 8.00181871,20.3438997 8,22 L8,22.059 C3.25356746,22.5896673 -0.251802516,26.7354411 0.0139428226,31.5040477 C0.279688161,36.2726543 4.22399439,40.0032719 9,40.0032719 C13.7760056,40.0032719 17.7203118,36.2726543 17.9860572,31.5040477 C18.2518025,26.7354411 14.7464325,22.5896673 10,22.059 L10,22 C10.0004962,21.4479209 10.4479209,21.0004962 11,21 L17,21 C17.7404736,20.9977897 18.4535443,20.7196922 19,20.22 C19.5464557,20.7196922 20.2595264,20.9977897 21,21 L27,21 C27.5520791,21.0004962 27.9995038,21.4479209 28,22 L28,22.059 C23.4125105,22.5700536 19.9561822,26.4701771 20.0003299,31.0858338 C20.0444777,35.7014905 23.5747745,39.5347885 28.1712,39.958 C28.5792248,41.1744528 29.7169476,41.9957303 31,42 L38,42 C38.5520791,42.0004962 38.9995038,42.4479209 39,43 L39,43.059 C34.2535675,43.5896673 30.7481975,47.7354411 31.0139428,52.5040477 C31.2796882,57.2726543 35.2239944,61.0032719 40,61.0032719 C44.7760056,61.0032719 48.7203118,57.2726543 48.9860572,52.5040477 C49.2518025,47.7354411 45.7464325,43.5896673 41,43.059 L41,43 C41.0004962,42.4479209 41.4479209,42.0004962 42,42 L49,42 C50.4633928,41.9964687 51.71036,40.9368424 51.95,39.4932 C56.1003829,38.0552956 58.6051622,33.8299809 57.8747529,29.4987282 C57.1443437,25.1674755 53.3924071,21.9972743 49,22 Z M34.3362,15.2051 C34.8114294,13.9649166 35.7631272,12.9664423 36.9791,12.4323 C38.220053,13.1892225 39.779947,13.1892225 41.0209,12.4323 C42.2368728,12.9664423 43.1885706,13.9649166 43.6638,15.2051 C41.0151156,17.5982863 36.9848844,17.5982863 34.3362,15.2051 Z M39,11 C37.8954305,11 37,10.1045695 37,9 C37,7.8954305 37.8954305,7 39,7 C40.1045695,7 41,7.8954305 41,9 C40.9987325,10.1040441 40.1040441,10.9987325 39,11 Z M39,3 C41.5019641,2.99545369 43.815407,4.32900438 45.065428,6.4963282 C46.315449,8.66365203 46.3112428,11.333925 45.0544,13.4973 C44.4381075,12.4301935 43.5489061,11.5463419 42.4781,10.9365 C42.8157735,10.3466511 42.9955346,9.67965078 43,9 C43,6.790861 41.209139,5 39,5 C36.790861,5 35,6.790861 35,9 C35.0044654,9.67965078 35.1842265,10.3466511 35.5219,10.9365 C34.4510939,11.5463419 33.5618925,12.4301935 32.9456,13.4973 C31.6887572,11.333925 31.684551,8.66365203 32.934572,6.4963282 C34.184593,4.32900438 36.4980359,2.99545369 39,3 Z M4.3362,36.2051 C4.81142937,34.9649166 5.76312716,33.9664423 6.9791,33.4323 C8.22005295,34.1892225 9.77994705,34.1892225 11.0209,33.4323 C12.2368728,33.9664423 13.1885706,34.9649166 13.6638,36.2051 C11.0151156,38.5982863 6.98488439,38.5982863 4.3362,36.2051 Z M9,32 C7.8954305,32 7,31.1045695 7,30 C7,28.8954305 7.8954305,28 9,28 C10.1045695,28 11,28.8954305 11,30 C10.9987325,31.1040441 10.1040441,31.9987325 9,32 Z M16,31 C15.9996738,32.228883 15.6733778,33.4356881 15.0544,34.4973 C14.4381075,33.4301935 13.5489061,32.5463419 12.4781,31.9365 C12.8157735,31.3466511 12.9955346,30.6796508 13,30 C13,27.790861 11.209139,26 9,26 C6.790861,26 5,27.790861 5,30 C5.00446536,30.6796508 5.18422651,31.3466511 5.5219,31.9365 C4.45109395,32.5463419 3.56189251,33.4301935 2.9456,34.4973 C1.47349,31.9499393 1.7522866,28.7537745 3.6432127,26.4997663 C5.5341388,24.2457581 8.63315645,23.4155251 11.3976619,24.4223338 C14.1621674,25.4291424 16.0014633,28.0578661 16,31 Z M19,11 C17.8954305,11 17,10.1045695 17,9 C17,7.8954305 17.8954305,7 19,7 C20.1045695,7 21,7.8954305 21,9 C20.9987325,10.1040441 20.1040441,10.9987325 19,11 Z M16.9791,12.4323 C18.220053,13.1892225 19.779947,13.1892225 21.0209,12.4323 C22.2368728,12.9664423 23.1885706,13.9649166 23.6638,15.2051 C21.0151156,17.5982863 16.9848844,17.5982863 14.3362,15.2051 C14.8114294,13.9649166 15.7631272,12.9664423 16.9791,12.4323 Z M19,3 C21.5019641,2.99545369 23.815407,4.32900438 25.065428,6.4963282 C26.315449,8.66365203 26.3112428,11.333925 25.0544,13.4973 C24.4381075,12.4301935 23.5489061,11.5463419 22.4781,10.9365 C22.8157735,10.3466511 22.9955346,9.67965078 23,9 C23,6.790861 21.209139,5 19,5 C16.790861,5 15,6.790861 15,9 C15.0044654,9.67965078 15.1842265,10.3466511 15.5219,10.9365 C14.4510939,11.5463419 13.5618925,12.4301935 12.9456,13.4973 C11.6887572,11.333925 11.684551,8.66365203 12.934572,6.4963282 C14.184593,4.32900438 16.4980359,2.99545369 19,3 Z M29,24 C31.5019641,23.9954537 33.815407,25.3290044 35.065428,27.4963282 C36.315449,29.663652 36.3112428,32.333925 35.0544,34.4973 C34.4381075,33.4301935 33.5489061,32.5463419 32.4781,31.9365 C32.8157735,31.3466511 32.9955346,30.6796508 33,30 C33,27.790861 31.209139,26 29,26 C26.790861,26 25,27.790861 25,30 C25.0044654,30.6796508 25.1842265,31.3466511 25.5219,31.9365 C24.4510939,32.5463419 23.5618925,33.4301935 22.9456,34.4973 C21.6887572,32.333925 21.684551,29.663652 22.934572,27.4963282 C24.184593,25.3290044 26.4980359,23.9954537 29,24 Z M29,38 C27.2768681,37.9993496 25.6151739,37.3598336 24.3362,36.2051 C24.8114294,34.9649166 25.7631272,33.9664423 26.9791,33.4323 C28.220053,34.1892225 29.779947,34.1892225 31.0209,33.4323 C32.2368728,33.9664423 33.1885706,34.9649166 33.6638,36.2051 C32.3848261,37.3598336 30.7231319,37.9993496 29,38 Z M29,32 C27.8954305,32 27,31.1045695 27,30 C27,28.8954305 27.8954305,28 29,28 C30.1045695,28 31,28.8954305 31,30 C30.9987325,31.1040441 30.1040441,31.9987325 29,32 Z M35.3362,57.2051 C35.8114294,55.9649166 36.7631272,54.9664423 37.9791,54.4323 C39.220053,55.1892225 40.779947,55.1892225 42.0209,54.4323 C43.2368728,54.9664423 44.1885706,55.9649166 44.6638,57.2051 C42.0151156,59.5982863 37.9848844,59.5982863 35.3362,57.2051 Z M40,53 C38.8954305,53 38,52.1045695 38,51 C38,49.8954305 38.8954305,49 40,49 C41.1045695,49 42,49.8954305 42,51 C41.9987325,52.1040441 41.1040441,52.9987325 40,53 Z M47,52 C46.9996738,53.228883 46.6733778,54.4356881 46.0544,55.4973 C45.4381075,54.4301935 44.5489061,53.5463419 43.4781,52.9365 C43.8157735,52.3466511 43.9955346,51.6796508 44,51 C44,48.790861 42.209139,47 40,47 C37.790861,47 36,48.790861 36,51 C36.0044654,51.6796508 36.1842265,52.3466511 36.5219,52.9365 C35.4510939,53.5463419 34.5618925,54.4301935 33.9456,55.4973 C32.47349,52.9499393 32.7522866,49.7537745 34.6432127,47.4997663 C36.5341388,45.2457581 39.6331565,44.4155251 42.3976619,45.4223338 C45.1621674,46.4291424 47.0014633,49.0578661 47,52 Z M42,40 C41.2595264,40.0022103 40.5464557,40.2803078 40,40.78 C39.4535443,40.2803078 38.7404736,40.0022103 38,40 L31,40 C30.8312743,39.9960103 30.6664979,39.9481386 30.5219,39.8611 C34.4666826,39.1798655 37.4889299,35.977565 37.941,32 L40.059,32 C40.5724713,36.5517384 44.4193956,39.9937912 49,40 L42,40 Z M49,32 C47.8954305,32 47,31.1045695 47,30 C47,28.8954305 47.8954305,28 49,28 C50.1045695,28 51,28.8954305 51,30 C50.9987325,31.1040441 50.1040441,31.9987325 49,32 Z M46.9791,33.4323 C48.220053,34.1892225 49.779947,34.1892225 51.0209,33.4323 C52.2368728,33.9664423 53.1885706,34.9649166 53.6638,36.2051 C51.0151156,38.5982863 46.9848844,38.5982863 44.3362,36.2051 C44.8114294,34.9649166 45.7631272,33.9664423 46.9791,33.4323 Z M55.0544,34.4973 C54.4381075,33.4301935 53.5489061,32.5463419 52.4781,31.9365 C52.8157735,31.3466511 52.9955346,30.6796508 53,30 C53,27.790861 51.209139,26 49,26 C46.790861,26 45,27.790861 45,30 C45.0044654,30.6796508 45.1842265,31.3466511 45.5219,31.9365 C44.4510939,32.5463419 43.5618925,33.4301935 42.9456,34.4973 C41.2385899,31.5557583 41.8928514,27.8129024 44.4965235,25.6248798 C47.1001955,23.4368572 50.8998045,23.4368572 53.5034765,25.6248798 C56.1071486,27.8129024 56.7614101,31.5557583 55.0544,34.4973 Z" id="Shape"/></g></g></svg>
