<?xml version="1.0" standalone="no"?>
<!DOCTYPE svg PUBLIC "-//W3C//DTD SVG 20010904//EN"
 "http://www.w3.org/TR/2001/REC-SVG-20010904/DTD/svg10.dtd">
<svg version="1.0" xmlns="http://www.w3.org/2000/svg"
 width="700.000000pt" height="700.000000pt" viewBox="0 0 700.000000 700.000000"
 preserveAspectRatio="xMidYMid meet">
<metadata>
Created by potrace 1.11, written by Peter Selinger 2001-2013
</metadata>
<g transform="translate(0.000000,700.000000) scale(0.100000,-0.100000)"
fill="#000000" stroke="none">
<path d="M2198 6873 c-89 -13 -180 -39 -255 -74 -24 -10 -45 -19 -48 -19 -10
0 -112 -65 -170 -109 -152 -115 -290 -305 -349 -482 -43 -130 -51 -193 -50
-364 2 -104 7 -150 27 -227 46 -175 157 -368 279 -484 121 -117 294 -215 455
-258 69 -19 83 -25 63 -30 -14 -3 -198 -7 -410 -8 l-385 -3 -57 -27 c-32 -15
-76 -44 -99 -65 -49 -44 -96 -138 -105 -206 -6 -41 -10 -48 -33 -52 -252 -48
-417 -131 -577 -289 -147 -147 -233 -295 -281 -489 -44 -173 -34 -404 24 -576
84 -251 288 -481 525 -595 165 -78 296 -106 483 -101 268 6 504 106 690 290
211 210 318 475 309 769 -9 316 -154 596 -408 790 -76 59 -236 146 -267 146
-10 0 -20 4 -23 8 -4 7 -87 27 -194 48 -24 5 -24 21 0 71 24 49 45 51 468 55
383 3 396 4 443 25 26 12 60 31 74 43 l26 20 31 -23 c17 -13 56 -33 88 -45 53
-20 75 -21 433 -22 403 -1 425 -3 459 -51 9 -13 16 -35 16 -49 0 -20 -5 -25
-29 -27 -61 -4 -196 -44 -277 -82 -379 -178 -605 -532 -605 -946 1 -90 2 -102
22 -205 25 -123 88 -271 160 -377 47 -69 194 -213 264 -260 124 -83 299 -154
415 -168 69 -8 73 -11 110 -76 39 -69 106 -124 184 -151 45 -15 100 -17 480
-18 236 0 441 -3 455 -7 34 -8 68 -39 80 -74 12 -36 4 -43 -83 -58 -292 -51
-562 -255 -709 -533 -34 -64 -82 -193 -92 -247 -3 -14 -7 -37 -11 -51 -12 -57
-13 -268 0 -345 37 -217 133 -403 290 -560 209 -208 454 -306 749 -300 134 3
149 5 240 30 225 60 420 191 565 378 95 124 177 326 198 487 8 63 8 231 -1
281 -39 231 -139 425 -299 584 -87 86 -151 132 -261 188 -77 39 -197 82 -260
92 -79 12 -85 15 -85 36 0 31 31 70 66 85 25 11 126 14 463 14 360 1 439 3
483 16 78 24 135 67 196 149 14 20 31 61 37 91 5 27 14 35 53 49 263 98 508
357 596 631 37 115 54 227 50 344 -3 127 -8 163 -36 260 -76 270 -264 504
-507 633 -63 33 -241 101 -241 92 0 -2 -11 0 -24 5 -64 24 -235 31 -361 13
-231 -31 -421 -127 -590 -297 -143 -144 -236 -313 -276 -506 -11 -52 -22 -97
-25 -99 -3 -4 -178 -5 -229 -2 -6 1 -11 9 -12 19 -4 46 -35 166 -58 228 -91
241 -277 446 -511 562 -67 34 -186 73 -280 94 l-62 13 12 34 c6 19 24 44 39
55 27 20 42 21 435 26 l407 5 58 29 c68 35 129 94 158 153 25 51 21 49 85 57
203 24 433 144 589 307 153 160 256 372 281 576 8 66 8 245 -1 283 -3 14 -8
41 -11 60 -9 55 -60 204 -93 267 -59 116 -162 244 -260 323 -24 19 -49 40 -55
46 -6 6 -47 31 -91 57 -91 51 -225 100 -335 122 -106 20 -319 13 -425 -14
-521 -136 -841 -605 -780 -1144 23 -205 153 -463 302 -599 25 -24 51 -48 57
-54 79 -75 265 -172 400 -207 55 -15 83 -26 73 -30 -9 -3 -190 -7 -402 -7
-420 -2 -432 -3 -520 -63 l-38 -26 -31 24 c-17 13 -55 32 -84 43 -50 19 -78
21 -439 22 -367 1 -474 8 -373 25 163 28 373 142 513 281 182 180 296 444 299
698 1 86 -8 222 -17 236 -2 4 -6 19 -9 34 -10 54 -47 153 -85 228 -202 396
-629 614 -1073 551z m267 -228 c156 -17 330 -103 449 -221 186 -186 266 -425
230 -691 -3 -24 -6 -46 -6 -50 -4 -36 -79 -223 -90 -223 -4 0 -19 18 -33 39
-38 62 -138 162 -202 205 l-59 40 25 60 c46 112 36 267 -25 386 -10 19 -46 63
-80 98 -246 246 -662 141 -759 -193 -32 -108 -23 -211 29 -336 5 -11 -8 -25
-46 -51 -65 -44 -169 -147 -206 -205 -15 -24 -30 -43 -33 -43 -9 0 -54 97 -72
155 -24 75 -29 110 -33 220 -13 384 257 726 636 802 89 18 168 21 275 8z
m2304 0 c391 -61 681 -398 678 -790 0 -105 -14 -189 -45 -270 -25 -65 -54
-125 -61 -125 -3 0 -18 19 -33 43 -38 59 -140 161 -204 204 -40 27 -53 41 -48
52 84 194 54 386 -81 525 -209 216 -573 173 -719 -84 -51 -90 -64 -143 -62
-244 1 -72 7 -104 27 -152 l26 -61 -46 -29 c-66 -41 -165 -137 -206 -200 -20
-30 -38 -54 -40 -54 -16 0 -78 159 -95 243 -13 64 -17 225 -6 272 3 17 8 41
11 54 9 46 38 126 68 185 152 306 497 484 836 431z m-2334 -465 c110 -43 167
-164 134 -283 -13 -49 -73 -115 -124 -138 -80 -37 -186 -16 -254 49 -88 84
-85 238 7 325 58 56 163 77 237 47z m2307 -6 c59 -29 114 -93 125 -144 19 -90
-2 -166 -63 -225 -146 -143 -384 -37 -384 171 0 52 42 137 84 169 69 52 168
65 238 29z m-2556 -631 c53 -25 71 -28 164 -28 93 0 113 3 172 28 l68 28 48
-26 c89 -48 198 -167 235 -256 l14 -34 -56 -44 c-198 -155 -497 -202 -741
-116 -90 31 -194 90 -247 139 l-25 23 28 57 c36 74 131 177 203 220 31 19 61
35 67 35 7 1 38 -11 70 -26z m2319 -7 c106 -38 236 -32 331 16 l44 21 47 -24
c68 -34 192 -161 227 -233 l29 -60 -34 -28 c-67 -58 -227 -139 -299 -153 -110
-21 -151 -26 -223 -24 -157 4 -328 63 -459 160 l-57 42 35 67 c19 37 58 91 87
122 58 61 164 131 187 124 8 -3 47 -17 85 -30z m-3186 -1301 c327 -43 602
-303 672 -635 14 -68 17 -227 5 -295 -14 -77 -80 -255 -96 -255 -3 0 -20 22
-39 49 -43 64 -132 151 -199 197 -39 26 -52 41 -48 52 3 10 15 44 27 77 20 57
27 161 15 220 -45 212 -234 368 -446 367 -41 0 -95 -5 -120 -12 -167 -45 -298
-184 -336 -355 -12 -55 -4 -165 16 -221 11 -32 23 -66 26 -75 4 -12 -10 -27
-48 -52 -69 -47 -152 -129 -196 -194 -19 -29 -38 -53 -42 -53 -7 0 -43 78 -67
145 -7 22 -19 76 -26 120 -85 536 361 991 902 920z m2353 -10 c138 -29 259
-92 370 -194 256 -236 331 -602 188 -918 -16 -35 -33 -63 -37 -63 -5 0 -17 16
-28 36 -25 47 -148 173 -205 210 -25 16 -48 31 -52 34 -4 3 4 35 19 70 29 71
38 179 21 253 -53 240 -292 398 -533 352 -175 -33 -325 -178 -363 -351 -17
-74 -7 -183 21 -254 15 -35 25 -65 24 -65 -98 -63 -228 -186 -262 -248 -11
-21 -23 -37 -27 -37 -12 0 -54 89 -72 150 -27 92 -37 161 -37 245 1 79 3 98
22 185 40 183 168 368 332 479 176 119 402 161 619 116z m2285 6 c270 -54 515
-273 598 -534 14 -42 29 -101 33 -131 15 -91 7 -234 -17 -321 -24 -87 -69
-195 -82 -195 -4 0 -18 17 -30 38 -27 42 -69 91 -118 136 -19 17 -39 36 -45
42 -6 6 -30 23 -54 38 -47 29 -48 34 -27 75 29 58 46 190 31 256 -38 179 -153
308 -321 362 -62 20 -191 19 -260 -2 -229 -70 -368 -306 -315 -539 6 -26 17
-61 25 -77 8 -15 15 -32 15 -38 0 -5 -24 -26 -53 -45 -67 -45 -149 -126 -195
-193 -19 -29 -38 -53 -42 -53 -9 0 -52 97 -74 165 -95 300 19 660 270 856 110
86 250 149 369 164 28 4 51 8 53 10 7 6 192 -4 239 -14z m-4655 -469 c110 -48
160 -183 110 -296 -54 -120 -191 -170 -308 -111 -149 74 -171 280 -41 379 72
55 156 65 239 28z m2294 2 c150 -72 176 -277 47 -383 -83 -68 -204 -68 -288 1
-92 77 -108 218 -35 314 22 29 80 70 115 81 42 14 118 7 161 -13z m2291 1
c113 -45 169 -195 113 -305 -90 -176 -333 -172 -412 6 -54 124 6 261 133 304
59 20 106 19 166 -5z m-1108 -501 c36 -206 140 -404 289 -551 159 -156 368
-263 567 -289 28 -3 52 -8 54 -10 2 -2 -162 -4 -365 -5 -203 0 -377 -2 -386
-4 -44 -8 -97 -30 -135 -55 l-41 -28 -36 25 c-82 59 -102 61 -570 62 -236 1
-441 4 -455 8 -20 5 -8 11 64 30 228 60 453 219 584 411 76 113 153 296 165
397 9 75 4 72 135 73 l119 0 11 -64z m-3709 -140 c66 -23 85 -26 160 -21 61 4
102 13 147 32 l62 27 53 -28 c75 -41 178 -146 216 -223 17 -35 29 -67 26 -72
-2 -4 -42 -33 -87 -62 -77 -51 -181 -99 -237 -111 -113 -22 -149 -26 -241 -22
-180 8 -351 74 -476 184 l-23 19 31 62 c17 34 55 88 84 119 57 61 171 136 195
128 8 -3 49 -17 90 -32z m2233 22 c34 -23 135 -46 197 -46 61 0 148 20 195 44
41 22 44 21 113 -23 80 -52 152 -130 193 -208 l34 -64 -37 -32 c-61 -54 -144
-98 -251 -135 -97 -34 -109 -36 -237 -36 -190 0 -314 36 -460 135 -83 55 -87
61 -64 111 20 46 82 129 123 166 38 35 142 102 158 102 7 0 24 -7 36 -14z
m2323 -13 c51 -23 73 -26 159 -27 110 0 128 3 196 35 l47 21 50 -27 c101 -55
194 -156 236 -257 l16 -37 -63 -45 c-153 -109 -303 -156 -487 -152 -193 5
-342 60 -499 184 l-24 19 34 64 c41 78 135 175 209 217 30 18 58 32 61 32 4 0
33 -12 65 -27z m-669 -1324 c256 -63 462 -249 558 -503 71 -188 61 -420 -25
-603 -16 -35 -31 -63 -34 -63 -3 0 -17 19 -32 41 -35 56 -158 178 -215 213
l-46 29 19 44 c26 60 30 77 33 163 5 130 -33 234 -120 329 -89 95 -202 144
-335 143 -254 -1 -452 -200 -452 -456 -1 -75 9 -117 46 -207 5 -11 -8 -25 -48
-52 -66 -44 -165 -143 -203 -203 -15 -24 -31 -44 -34 -44 -3 0 -20 30 -37 68
-79 176 -91 386 -30 572 130 401 544 630 955 529z m-90 -461 c170 -85 161
-326 -15 -408 -91 -43 -221 -6 -277 78 -66 101 -50 221 40 300 73 64 163 75
252 30z m-298 -614 c117 -58 290 -56 394 4 27 16 30 16 84 -13 90 -49 180
-144 227 -241 l23 -47 -31 -26 c-171 -145 -425 -209 -653 -166 -125 24 -262
88 -357 167 l-29 25 29 59 c34 71 159 200 224 232 54 26 49 26 89 6z"/>
</g>
</svg>
